<svg width="89" height="86" viewBox="0 0 89 86" fill="none" xmlns="http://www.w3.org/2000/svg">
<path d="M0.344153 50.3293C0.301803 49.9186 0.261711 49.4959 0.224872 49.0638C0.184872 48.9422 0.167376 48.6762 0.164443 48.3055C-0.0365464 45.5916 -0.093219 42.5806 0.224872 39.8827C0.260093 39.584 0.299908 39.2891 0.34463 38.9989C1.59131 30.9087 3.11624 26.9724 4.47082 24.4047C5.98812 21.5285 9.65971 19.12 11.4717 16.8559C13.8881 13.8365 14.6796 13.7621 17.4724 12.3267C20.5302 10.7552 21.6034 8.04757 24.4733 7.29428C27.3433 6.54099 30.4741 5.28108 35.4747 2.26181C42.7944 -2.15768 56.7047 3.10217 59.9777 4.77794C63.2507 6.45372 68.4788 8.72856 70.5656 10.2384C74.392 13.007 73.8272 15.4855 75.9797 16.8559C78.2408 18.2954 80.3394 22.1411 82.7616 23.2983C84.9808 24.3586 86.0781 27.9273 86.9811 31.5473C89.3418 41.0117 89.8918 50.8438 87.2247 56.9169C84.5577 62.9901 81.9529 70.4907 77.98 73.2195C71.6508 77.5667 69.6901 78.7535 66.9786 80.7682C63.3584 83.4581 59.8736 82.3876 57.4774 84.1547C54.8753 86.0736 40.4753 85.914 28.3083 84.1547C25.394 83.7333 20.479 84.0428 17.4724 80.7682C15.3598 78.4673 10.2495 77.2274 8.97138 73.2195C8.32944 71.2066 6.54689 68.5464 4.47082 65.6709C2.57074 63.0392 1.61321 59.5472 0.34463 56.5659C-0.0354239 55.2415 0.359502 52.2661 0.344153 50.3293Z" fill="#A4EC92"/>
</svg>
