<svg width="89" height="85" viewBox="0 0 89 85" fill="none" xmlns="http://www.w3.org/2000/svg">
<path d="M0.344153 49.7946C0.301803 49.3839 0.261711 48.9612 0.224872 48.5291C0.184872 48.4076 0.167376 48.1416 0.164443 47.7708C-0.0365464 45.057 -0.093219 42.0459 0.224872 39.348C0.260093 39.0493 0.299908 38.7544 0.34463 38.4642C1.59131 30.374 3.11624 26.4377 4.47082 23.87C5.98812 20.9938 9.65971 18.5854 11.4717 16.3212C13.8881 13.3018 14.6796 13.2274 17.4724 11.7921C20.5302 10.2205 21.6034 7.5129 24.4733 6.75961C27.3433 6.00632 30.4741 4.74641 35.4747 1.72714C42.7944 -2.69235 56.7047 2.5675 59.9777 4.24327C63.2507 5.91905 68.4788 8.1939 70.5656 9.70375C74.392 12.4723 73.8272 14.9508 75.9797 16.3212C78.2408 17.7607 80.3394 21.6065 82.7616 22.7637C84.9808 23.8239 86.0781 27.3927 86.9811 31.0126C89.3418 40.4771 89.8918 50.3091 87.2247 56.3823C84.5577 62.4554 81.9529 69.956 77.98 72.6849C71.6508 77.032 69.6901 78.2188 66.9786 80.2336C63.3584 82.9234 59.8736 81.8529 57.4774 83.62C54.8753 85.539 40.4753 85.3793 28.3083 83.62C25.394 83.1986 20.479 83.5081 17.4724 80.2336C15.3598 77.9326 10.2495 76.6927 8.97138 72.6849C8.32944 70.6719 6.54689 68.0117 4.47082 65.1363C2.57074 62.5045 1.61321 59.0125 0.34463 56.0312C-0.0354239 54.7069 0.359502 51.7314 0.344153 49.7946Z" fill="#2AA7FF"/>
</svg>
