<svg width="24" height="24" viewBox="0 0 24 24" fill="none" xmlns="http://www.w3.org/2000/svg">
<path d="M5 21.0004C4.45 21.0004 3.97933 20.8047 3.588 20.4134C3.19667 20.0221 3.00067 19.5511 3 19.0004V5.00039C3 4.45039 3.196 3.97972 3.588 3.58839C3.98 3.19706 4.45067 3.00106 5 3.00039H12.375C12.7083 3.00039 12.9627 3.13806 13.138 3.41339C13.3133 3.68872 13.3423 3.98439 13.225 4.30039C13.1417 4.58372 13.0833 4.86706 13.05 5.15039C13.0167 5.43372 13 5.71706 13 6.00039C13 7.66706 13.5833 9.08372 14.75 10.2504C15.9167 11.4171 17.3333 12.0004 19 12.0004C19.1333 12.0004 19.275 11.9964 19.425 11.9884C19.575 11.9804 19.7167 11.9594 19.85 11.9254C20.15 11.8921 20.4167 11.9671 20.65 12.1504C20.8833 12.3337 21 12.5671 21 12.8504V19.0004C21 19.5504 20.8043 20.0214 20.413 20.4134C20.0217 20.8054 19.5507 21.0011 19 21.0004H5ZM7 17.0004H17C17.2 17.0004 17.35 16.9087 17.45 16.7254C17.55 16.5421 17.5333 16.3671 17.4 16.2004L14.65 12.5254C14.55 12.3921 14.4167 12.3254 14.25 12.3254C14.0833 12.3254 13.95 12.3921 13.85 12.5254L11.25 16.0004L9.4 13.5254C9.3 13.3921 9.16667 13.3254 9 13.3254C8.83333 13.3254 8.7 13.3921 8.6 13.5254L6.6 16.2004C6.46667 16.3671 6.45 16.5421 6.55 16.7254C6.65 16.9087 6.8 17.0004 7 17.0004ZM19 10.0004C18.7167 10.0004 18.4793 9.90439 18.288 9.71239C18.0967 9.52039 18.0007 9.28306 18 9.00039V5.82539L17.1 6.70039C16.9167 6.88372 16.6877 6.97972 16.413 6.98839C16.1383 6.99706 15.9007 6.90106 15.7 6.70039C15.5167 6.51706 15.425 6.28372 15.425 6.00039C15.425 5.71706 15.5167 5.48372 15.7 5.30039L18.3 2.70039C18.4 2.60039 18.5083 2.52539 18.625 2.47539C18.7417 2.42539 18.8667 2.40039 19 2.40039C19.1333 2.40039 19.2583 2.42539 19.375 2.47539C19.4917 2.52539 19.6 2.60039 19.7 2.70039L22.3 5.30039C22.4833 5.48372 22.5793 5.71306 22.588 5.98839C22.5967 6.26372 22.5007 6.50106 22.3 6.70039C22.1167 6.88372 21.8833 6.97539 21.6 6.97539C21.3167 6.97539 21.0833 6.88372 20.9 6.70039L20 5.82539V9.00039C20 9.28372 19.9043 9.52139 19.713 9.71339C19.5217 9.90539 19.284 10.0011 19 10.0004Z" fill="black"/>
</svg>
