<svg width="24" height="24" viewBox="0 0 24 24" fill="none" xmlns="http://www.w3.org/2000/svg">
<mask id="mask0_1693_17353" style="mask-type:alpha" maskUnits="userSpaceOnUse" x="3" y="3" width="18" height="18">
<path d="M19.2217 15.2695L16.6817 14.9795C16.0717 14.9095 15.4717 15.1195 15.0417 15.5495L13.2017 17.3895C10.3717 15.9495 8.05174 13.6395 6.61174 10.7995L8.46174 8.94953C8.89174 8.51953 9.10174 7.91953 9.03174 7.30953L8.74174 4.78953C8.62174 3.77953 7.77174 3.01953 6.75174 3.01953H5.02174C3.89174 3.01953 2.95174 3.95953 3.02174 5.08953C3.55174 13.6295 10.3817 20.4495 18.9117 20.9795C20.0417 21.0495 20.9817 20.1095 20.9817 18.9795V17.2495C20.9917 16.2395 20.2317 15.3895 19.2217 15.2695Z" fill="black"/>
</mask>
<g mask="url(#mask0_1693_17353)">
<rect x="3" y="3" width="24" height="24" fill="#858C94"/>
</g>
</svg>
