<svg width="24" height="24" viewBox="0 0 24 24" fill="none" xmlns="http://www.w3.org/2000/svg">
<path d="M8 6.82032V17.1803C8 17.9703 8.87 18.4503 9.54 18.0203L17.68 12.8403C17.8225 12.7501 17.9399 12.6254 18.0212 12.4776C18.1026 12.3299 18.1452 12.164 18.1452 11.9953C18.1452 11.8267 18.1026 11.6608 18.0212 11.513C17.9399 11.3653 17.8225 11.2405 17.68 11.1503L9.54 5.98032C9.38917 5.88276 9.2148 5.82772 9.0353 5.82101C8.85579 5.8143 8.6778 5.85616 8.52011 5.94217C8.36241 6.02819 8.23085 6.15517 8.13931 6.30973C8.04777 6.46429 7.99964 6.64069 8 6.82032Z" fill="#004B80"/>
</svg>
