<svg width="1920" height="1454" viewBox="0 0 1920 1454" fill="none" xmlns="http://www.w3.org/2000/svg">
<path d="M0 1454C0 1454 100.5 1431.34 240 1431.34C379.5 1431.34 358.5 1454 480 1454C601.5 1454 771.5 1410.31 960 1410.31C1148.5 1410.31 1296.5 1454 1440 1454C1583.5 1454 1596.5 1431.34 1680 1431.34C1763.5 1431.34 1920 1454 1920 1454V7.45058e-06H0V1454Z" fill="#DFF2FF"/>
<path d="M0 0C0 0 100.5 22.6555 240 22.6555C379.5 22.6555 358.5 0 480 0C601.5 0 771.5 43.6928 960 43.6928C1148.5 43.6928 1296.5 0 1440 0C1583.5 0 1596.5 22.6555 1680 22.6555C1763.5 22.6555 1920 0 1920 0V1454H0V0Z" fill="white"/>
</svg>
